:FULLY-SPECIFIED
:FORCE-ALL-JOINTS-BE-3DOF
:DEGREES
476
root 3.65185 16.3191 -7.14698 4.66329 60.1456 -6.73014
lfemur -39.2209 -2.06951 -21.796
ltibia 49.38 -0 0
lfoot -20.2819 0.3848 0.00587983
ltoes 16.9501 -0 0
rfemur -21.9049 2.28798 9.90898
rtibia 69.989 -0 0
rfoot 25.4817 12.416 0.141328
rtoes -26.0764 0 0
lowerback 2.18015 -0.0316091 1.5849
upperback -0.352707 0.0271828 1.28428
thorax -1.58164 0.00816385 0.428097
lowerneck -8.50223 -6.8969 0.432106
upperneck 3.49807 -9.32667 1.38286
head 2.63162 -4.58254 -0.0872833
lclavicle 6.55182e-014 -2.43511e-015 0
lhumerus -48.6604 -27.2863 108.244
lradius 55.9288 -0 0
lwrist 4.99252 0 0
lhand -8.89531 -5.95037 0.0891959
lfingers 7.12502 -0 0
lthumb 17.043 23.2657 0.0685854
rclavicle 6.55182e-014 -2.43511e-015 0
rhumerus -54.8927 2.76852 -84.014
rradius 63.18 -0 0
rwrist 14.9221 0 0
rhand -28.3875 -26.8925 0.0310994
rfingers 7.12502 -0 0
rthumb -1.76011 -56.85 0.0301157
477
root 3.7233 16.334 -7.09767 4.8173 61.304 -6.34868
lfemur -38.5286 -2.93241 -21.9644
ltibia 48.9698 -0 0
lfoot -20.3952 0.0543575 0.00783991
ltoes 17.1588 -0 0
rfemur -24.049 1.96925 9.93192
rtibia 71.5259 -0 0
rfoot 24.6145 11.379 0.18849
rtoes -24.8839 0 0
lowerback 2.26472 -0.077622 1.40663
upperback -0.341746 -0.0395254 1.19307
thorax -1.61732 -0.024195 0.437429
lowerneck -8.50462 -7.01051 0.330484
upperneck 3.64837 -9.47408 1.43981
head 2.69326 -4.6536 -0.0648056
lclavicle 6.55182e-014 -2.43511e-015 0
lhumerus -48.712 -27.5873 108.535
lradius 55.9569 -0 0
lwrist 4.95877 0 0
lhand -7.85502 -5.40475 0.118953
lfingers 7.12502 -0 0
lthumb 18.0425 23.7024 0.0914638
rclavicle 6.55182e-014 -2.43511e-015 0
rhumerus -54.3468 3.51855 -84.7543
rradius 63.4926 -0 0
rwrist 15.5691 0 0
rhand -27.7733 -26.5701 0.0414689
rfingers 7.12502 -0 0
rthumb -1.16699 -56.5268 0.0401571
478
root 3.79476 16.3489 -7.04836 4.99392 62.4618 -5.94577
lfemur -37.8331 -3.79322 -22.1434
ltibia 48.5596 -0 0
lfoot -20.5085 -0.276088 0.00914668
ltoes 17.3674 -0 0
rfemur -26.1928 1.6516 9.96677
rtibia 73.0628 -0 0
rfoot 23.7466 10.3415 0.219946
rtoes -23.6913 0 0
lowerback 2.34943 -0.123372 1.2283
upperback -0.330679 -0.106216 1.10185
thorax -1.653 -0.056548 0.446781
lowerneck -8.5068 -7.12412 0.228842
upperneck 3.79858 -9.62163 1.49638
head 2.75487 -4.72469 -0.0424024
lclavicle 6.55182e-014 -2.43511e-015 0
lhumerus -48.7654 -27.8882 108.827
lradius 55.985 -0 0
lwrist 4.92502 0 0
lhand -6.81449 -4.85868 0.138798
lfingers 7.12502 -0 0
lthumb 19.0421 24.1395 0.106721
rclavicle 6.55182e-014 -2.43511e-015 0
rhumerus -53.8101 4.27553 -85.4881
rradius 63.8052 -0 0
rwrist 16.2161 0 0
rhand -27.1592 -26.2477 0.0483828
rfingers 7.12502 -0 0
rthumb -0.573819 -56.2035 0.0468521
479
root 3.86622 16.3639 -6.99905 5.19602 63.619 -5.51852
lfemur -37.1342 -4.65178 -22.333
ltibia 48.1494 -0 0
lfoot -20.6218 -0.606536 0.00980007
ltoes 17.576 -0 0
rfemur -28.3365 1.33547 10.0135
rtibia 74.5997 -0 0
rfoot 22.8783 9.30357 0.235678
rtoes -22.4987 0 0
lowerback 2.43429 -0.168857 1.0499
upperback -0.319505 -0.172889 1.01062
thorax -1.68869 -0.0888952 0.456153
lowerneck -8.50879 -7.23773 0.127179
upperneck 3.94871 -9.76932 1.55259
head 2.81647 -4.79579 -0.0200735
lclavicle 6.55182e-014 -2.43511e-015 0
lhumerus -48.8207 -28.1887 109.12
lradius 56.0131 -0 0
lwrist 4.89127 0 0
lhand -5.77383 -4.31234 0.148722
lfingers 7.12502 -0 0
lthumb 20.0417 24.5767 0.114351
rclavicle 6.55182e-014 -2.43511e-015 0
rhumerus -53.2826 5.03927 -86.2155
rradius 64.1179 -0 0
rwrist 16.8631 0 0
rhand -26.545 -25.9252 0.0518399
rfingers 7.12502 -0 0
rthumb 0.0193773 -55.8802 0.0501998
480
root 3.93768 16.3788 -6.94975 5.42698 64.7755 -5.06346
lfemur -36.4315 -5.50797 -22.5335
ltibia 47.7393 -0 0
lfoot -20.735 -0.936984 0.00980007
ltoes 17.7846 -0 0
rfemur -30.4802 1.02132 10.072
rtibia 76.1366 -0 0
rfoot 22.0098 8.26556 0.235678
rtoes -21.3061 0 0
lowerback 2.51928 -0.214078 0.871433
upperback -0.308226 -0.239544 0.919371
thorax -1.72439 -0.121236 0.465545
lowerneck -8.51057 -7.35135 0.0254937
upperneck 4.09875 -9.91716 1.60844
head 2.87804 -4.86692 0.0021809
lclavicle 6.55182e-014 -2.43511e-015 0
lhumerus -48.878 -28.489 109.414
lradius 56.0413 -0 0
lwrist 4.85753 0 0
lhand -4.73311 -3.76591 0.148722
lfingers 7.12502 -0 0
lthumb 21.0415 25.014 0.114351
rclavicle 6.55182e-014 -2.43511e-015 0
rhumerus -52.7643 5.8096 -86.9368
rradius 64.4305 -0 0
rwrist 17.5101 0 0
rhand -25.9307 -25.6027 0.0518399
rfingers 7.12502 -0 0
rthumb 0.612583 -55.5568 0.0501998
481
root 4.00914 16.3938 -6.90044 5.69084 65.931 -4.57652
lfemur -35.7247 -6.36164 -22.7448
ltibia 47.3291 -0 0
lfoot -20.8483 -1.26743 0.00914668
ltoes 17.9932 -0 0
rfemur -32.6241 0.709568 10.1422
rtibia 77.6735 -0 0
rfoot 21.1415 7.22766 0.219946
rtoes -20.1135 0 0
lowerback 2.60442 -0.259034 0.692899
upperback -0.29684 -0.306181 0.82811
thorax -1.76009 -0.153572 0.474958
lowerneck -8.51215 -7.46497 -0.076214
upperneck 4.24872 -10.0651 1.66391
head 2.93959 -4.93808 0.024361
lclavicle 6.55182e-014 -2.43511e-015 0
lhumerus -48.9371 -28.7891 109.71
lradius 56.0694 -0 0
lwrist 4.82378 0 0
lhand -3.69244 -3.21957 0.138798
lfingers 7.12502 -0 0
lthumb 22.0411 25.4512 0.106721
rclavicle 6.55182e-014 -2.43511e-015 0
rhumerus -52.255 6.58634 -87.652
rradius 64.7432 -0 0
rwrist 18.1571 0 0
rhand -25.3165 -25.2802 0.0483828
rfingers 7.12502 -0 0
rthumb 1.20578 -55.2335 0.0468521
482
root 4.0806 16.4087 -6.85113 5.99244 67.0856 -4.05279
lfemur -35.0135 -7.21264 -22.967
ltibia 46.9189 -0 0
lfoot -20.9616 -1.59788 0.00783991
ltoes 18.2018 -0 0
rfemur -34.7682 0.400663 10.224
rtibia 79.2104 -0 0
rfoot 20.2736 6.19012 0.18849
rtoes -18.9209 0 0
lowerback 2.6897 -0.303725 0.514296
upperback -0.285348 -0.3728 0.736835
thorax -1.79579 -0.185902 0.48439
lowerneck -8.51352 -7.57859 -0.177945
upperneck 4.39862 -10.2133 1.71901
head 3.00112 -5.00925 0.0464667
lclavicle 6.55182e-014 -2.43511e-015 0
lhumerus -48.9983 -29.0889 110.006
lradius 56.0975 -0 0
lwrist 4.79003 0 0
lhand -2.65192 -2.6735 0.118953
lfingers 7.12502 -0 0
lthumb 23.0407 25.8883 0.0914638
rclavicle 6.55182e-014 -2.43511e-015 0
rhumerus -51.7546 7.36931 -88.3615
rradius 65.0558 -0 0
rwrist 18.8041 0 0
rhand -24.7024 -24.9578 0.0414689
rfingers 7.12502 -0 0
rthumb 1.79895 -54.9102 0.0401571
483
root 4.15205 16.4236 -6.80182 6.33764 68.239 -3.48636
lfemur -34.2975 -8.06082 -23.2004
ltibia 46.5087 -0 0
lfoot -21.0749 -1.92832 0.00587983
ltoes 18.4105 -0 0
rfemur -36.9127 0.0950351 10.3173
rtibia 80.7473 -0 0
rfoot 19.4064 5.15318 0.141328
rtoes -17.7284 0 0
lowerback 2.77511 -0.348149 0.335627
upperback -0.27375 -0.4394 0.645546
thorax -1.8315 -0.218225 0.493843
lowerneck -8.5147 -7.69221 -0.279701
upperneck 4.54844 -10.3615 1.77375
head 3.06263 -5.08046 0.0684981
lclavicle 6.55182e-014 -2.43511e-015 0
lhumerus -49.0613 -29.3884 110.304
lradius 56.1256 -0 0
lwrist 4.75628 0 0
lhand -1.61163 -2.12788 0.0891959
lfingers 7.12502 -0 0
lthumb 24.0402 26.325 0.0685854
rclavicle 6.55182e-014 -2.43511e-015 0
rhumerus -51.2632 8.15835 -89.0653
rradius 65.3684 -0 0
rwrist 19.4511 0 0
rhand -24.0882 -24.6354 0.0310994
rfingers 7.12502 -0 0
rthumb 2.39207 -54.587 0.0301157
484
root 4.22351 16.4386 -6.75252 6.73361 69.3909 -2.87002
lfemur -33.5764 -8.90604 -23.445
ltibia 46.0986 -0 0
lfoot -21.1882 -2.25876 0.00326649
ltoes 18.6191 -0 0
rfemur -39.0578 -0.206887 10.422
rtibia 82.2842 -0 0
rfoot 18.5402 4.11707 0.0784864
rtoes -16.5358 0 0
lowerback 2.86067 -0.392307 0.156891
upperback -0.262046 -0.505982 0.554242
thorax -1.86722 -0.250543 0.503316
lowerneck -8.51566 -7.80584 -0.381481
upperneck 4.69818 -10.51 1.82812
head 3.12412 -5.15168 0.0904552
lclavicle 6.55182e-014 -2.43511e-015 0
lhumerus -49.1264 -29.6876 110.603
lradius 56.1538 -0 0
lwrist 4.72253 0 0
lhand -0.571669 -1.5829 0.0495394
lfingers 7.12502 -0 0
lthumb 25.0394 26.7613 0.0380938
rclavicle 6.55182e-014 -2.43511e-015 0
rhumerus -50.7806 8.95329 -89.7638
rradius 65.6811 -0 0
rwrist 20.0981 0 0
rhand -23.4742 -24.3132 0.0172758
rfingers 7.12502 -0 0
rthumb 2.98512 -54.2639 0.0167294
485
root 4.29497 16.4535 -6.70321 7.18919 70.5412 -2.19487
lfemur -32.85 -9.74814 -23.7009
ltibia 45.6884 0 0
lfoot -21.3014 -2.58919 0
ltoes 18.8277 0 0
rfemur -41.2034 -0.504678 10.5379
rtibia 83.8211 0 0
rfoot 17.6753 3.08203 0
rtoes -15.3432 0 0
lowerback 2.94636 -0.436198 -0.0219121
upperback -0.250235 -0.572545 0.462924
thorax -1.90294 -0.282855 0.512809
lowerneck -8.51643 -7.91947 -0.483288
upperneck 4.84786 -10.6585 1.88212
head 3.18559 -5.22293 0.112338
lclavicle 6.55182e-014 -2.43511e-015 0
lhumerus -49.1934 -29.9865 110.904
lradius 56.1819 0 0
lwrist 4.68878 0 0
lhand 0.467864 -1.03872 0
lfingers 7.12502 0 0
lthumb 26.0384 27.1969 0
rclavicle 6.55182e-014 -2.43511e-015 0
rhumerus -50.3067 9.75396 -90.457
rradius 65.9937 0 0
rwrist 20.7451 0 0
rhand -22.8602 -23.9912 0
rfingers 7.12502 0 0
rthumb 3.57809 -773.941 0
486
root 4.36487 16.457 -6.64248 6.99829 71.7438 -2.17429
lfemur -32.3205 -10.4784 -23.5959
ltibia 45.6683 -0 0
lfoot -21.4959 -2.88405 0.0050075
ltoes 18.7591 -0 0
rfemur -42.6017 0.00193298 10.5696
rtibia 83.2242 -0 0
rfoot 17.0336 3.72809 -0.0362543
rtoes -15.3691 0 0
lowerback 3.11932 -0.443099 -0.136825
upperback -0.214779 -0.583893 0.502654
thorax -1.96162 -0.287265 0.620347
lowerneck -8.55095 -8.0334 -0.572247
upperneck 5.0779 -10.8053 1.86655
head 3.28047 -5.29497 0.103293
lclavicle 2.86498e-014 5.66536e-015 0
lhumerus -49.1678 -30.206 111.278
lradius 56.1667 -0 0
lwrist 4.61775 0 0
lhand 1.08491 -0.870702 0.00905667
lfingers 7.12502 -0 0
lthumb 26.6275 27.2618 0.0033403
rclavicle 2.86498e-014 5.66536e-015 0
rhumerus -49.6883 11.636 -91.1385
rradius 67.55 -0 0
rwrist 21.3462 0 0
rhand -21.3844 -23.4665 0.0680043
rfingers 7.12502 -0 0
rthumb 5.00067 -53.3363 0.0755324
